<svg width="30" height="30" viewBox="0 0 30 30" fill="none" xmlns="http://www.w3.org/2000/svg">
<path fill-rule="evenodd" clip-rule="evenodd" d="M13.0093 2.17453C10.1227 2.69252 7.27723 4.72654 6.02856 7.16476C4.68883 9.78081 4.6578 12.3716 5.93594 14.9224C6.55347 16.1551 13.9393 27.1271 14.5517 27.7218C14.7954 27.9582 15.0976 28.052 15.358 27.972C15.859 27.8185 23.4778 16.2322 24.298 14.3766C27.1924 7.82857 20.687 0.796761 13.0093 2.17453ZM17.2075 3.81333C19.2857 4.24139 21.3898 5.83268 22.4794 7.80042C23.2156 9.12986 23.4714 11.5301 23.0456 13.1127C22.8833 13.7157 21.3211 16.3222 18.9525 19.9416C16.8457 23.161 15.1049 25.7765 15.0837 25.7536C15.0627 25.7308 13.3568 23.2343 11.2928 20.2059C9.22891 17.1775 7.35177 14.2004 7.12123 13.5905C5.77949 10.0378 7.57472 6.03069 11.2703 4.32949C13.1403 3.46848 14.8235 3.32226 17.2075 3.81333ZM12.8736 7.03098C9.06778 8.64103 9.1682 13.825 13.0338 15.3007C14.7581 15.9588 17.0818 15.5854 18.4254 14.4339C20.9448 12.2753 20.1376 8.17627 16.9537 6.96104C15.8361 6.53441 13.9719 6.56643 12.8736 7.03098ZM16.5596 8.44995C18.9195 9.59748 18.8347 12.8339 16.4172 13.8821C14.0861 14.893 11.414 13.1545 11.7026 10.8148C11.9709 8.63879 14.4577 7.42804 16.5596 8.44995Z" fill="white"/>
</svg>
