<svg width="70" height="70" viewBox="0 0 70 70" fill="none" xmlns="http://www.w3.org/2000/svg">
<g style="mix-blend-mode:darken" filter="url(#filter0_d_403_31)">
<path fill-rule="evenodd" clip-rule="evenodd" d="M34.7517 22.1118C28.224 28.8156 22.9208 34.6717 22.9661 35.1248C23.0115 35.5786 24.8433 36.6221 27.0368 37.444C29.2303 38.2658 31.0432 39.121 31.0656 39.345C31.088 39.5689 29.1248 43.8851 26.7029 48.937C24.2811 53.9888 22.4238 58.3836 22.5757 58.7039C22.727 59.0242 23.2458 59.2156 23.728 59.1296C24.9975 58.9029 47.7868 35.2878 47.6882 34.3013C47.6426 33.8452 45.8106 32.8 43.6171 31.9781C41.4236 31.1562 39.6107 30.301 39.5883 30.0771C39.5659 29.8531 41.5291 25.5369 43.951 20.4851C48.1936 11.6357 48.5931 10.3685 47.2408 10.0631C46.8988 9.98569 41.2788 15.4075 34.7517 22.1118Z"/>
</g>
<defs>
<filter id="filter0_d_403_31" x="20.567" y="10.0623" width="29.3655" height="53.0879" filterUnits="userSpaceOnUse" color-interpolation-filters="sRGB">
<feFlood flood-opacity="0" result="BackgroundImageFix"/>
<feColorMatrix in="SourceAlpha" type="matrix" values="0 0 0 0 0 0 0 0 0 0 0 0 0 0 0 0 0 0 127 0" result="hardAlpha"/>
<feOffset dy="2"/>
<feGaussianBlur stdDeviation="1"/>
<feComposite in2="hardAlpha" operator="out"/>
<feColorMatrix type="matrix" values="0 0 0 0 0 0 0 0 0 0 0 0 0 0 0 0 0 0 0.25 0"/>
<feBlend mode="normal" in2="BackgroundImageFix" result="effect1_dropShadow_403_31"/>
<feBlend mode="normal" in="SourceGraphic" in2="effect1_dropShadow_403_31" result="shape"/>
</filter>
</defs>
</svg>
