<svg width="70" height="56" viewBox="0 0 70 56" fill="none" xmlns="http://www.w3.org/2000/svg">
<g style="mix-blend-mode:darken" filter="url(#filter0_d_403_28)">
<path fill-rule="evenodd" clip-rule="evenodd" d="M14.6378 5.33117C12.6925 6.11713 11.7058 9.16888 12.7378 11.2073C12.9565 11.6393 16.6378 15.5137 20.9183 19.8166L28.7005 27.6402L20.7384 35.6437C16.359 40.0457 12.5968 44.0007 12.3781 44.4327C11.8285 45.5187 11.8806 46.9075 12.5177 48.1395C13.3206 49.6916 14.4295 50.3017 16.4493 50.3017H18.2399L26.5373 42.0317L34.8346 33.762L42.5618 41.5162C46.8118 45.7813 50.7261 49.5028 51.2603 49.7862C52.5228 50.4564 54.548 50.4431 55.8764 49.756C57.7022 48.8118 58.5443 46.2485 57.6249 44.4327C57.4062 44.0007 53.6023 40.0037 49.1718 35.5509L41.1165 27.4546L49.2099 19.3669C55.4645 13.117 57.3519 11.0203 57.5174 10.1387C58.0972 7.04877 55.1372 4.36932 52.0002 5.14448C51.3667 5.30096 48.115 8.26998 43.0014 13.3602L34.9943 21.3313L28.0736 14.48C18.8079 5.30743 18.4086 4.97326 16.7453 5.00132C16.004 5.01391 15.0558 5.16247 14.6378 5.33117Z" fill="#EA5F69"/>
</g>
</svg>

