<svg width="90" height="90" viewBox="0 0 90 90" fill="none" xmlns="http://www.w3.org/2000/svg">
<path fill-rule="evenodd" clip-rule="evenodd" d="M29.184 1.42507C19.58 4.01007 10.487 11.0191 5.191 19.9201C2.459 24.5131 0 34.0091 0 39.9681C0 49.9521 5.661 62.0551 13.837 69.5501C15.302 70.8931 19.425 73.4251 23 75.1771C28.997 78.1171 30.278 78.3631 39.563 78.3631C49.082 78.3631 50.014 78.1711 56.781 74.8121L63.935 71.2611L73.198 80.5621C82.823 90.2271 85.269 91.4341 88.345 88.0341C91.336 84.7291 90.218 82.5411 80.699 73.0611L71.398 63.7981L74.949 56.6441C78.309 49.8741 78.5 48.9481 78.5 39.4051C78.5 30.0851 78.258 28.8301 75.307 22.8421C66.521 5.01307 47.93 -3.61993 29.184 1.42507ZM52.5 13.6131C75.233 25.4391 72.716 58.9801 48.503 66.8771C35.484 71.1241 20.141 64.7131 13.765 52.3631C10.825 46.6681 10.272 36.5711 12.528 29.7791C14.754 23.0781 22.579 14.9021 29.027 12.5401C35.224 10.2701 47.119 10.8131 52.5 13.6131Z" fill="white"/>
</svg>
