<svg width="112" height="80" viewBox="0 0 112 80" fill="none" xmlns="http://www.w3.org/2000/svg">
<path fill-rule="evenodd" clip-rule="evenodd" d="M1.15973 1.01571C-0.446273 2.62171 -0.373273 5.31071 1.31373 6.71071C2.29973 7.52871 17.5717 7.77071 56.4547 7.58371C106.421 7.34271 110.312 7.20071 111.337 5.57471C112.142 4.29871 112.142 3.35071 111.337 2.07471C110.312 0.448713 106.414 0.306712 56.3007 0.0657122C15.1847 -0.131288 2.08073 0.094713 1.15973 1.01571ZM1.16073 37.0147C-0.447273 38.6227 -0.374273 41.3107 1.31573 42.7127C2.29873 43.5277 15.4897 43.7727 48.4567 43.5847C90.7997 43.3447 94.3157 43.1937 95.3367 41.5747C96.1417 40.2987 96.1417 39.3507 95.3367 38.0747C94.3157 36.4557 90.7927 36.3057 48.3017 36.0647C13.4107 35.8677 2.07973 36.0957 1.16073 37.0147ZM1.16573 73.0097C-0.449272 74.6247 -0.375273 77.3097 1.32273 78.7187C2.29373 79.5237 10.8127 79.7787 30.4637 79.5907C55.6517 79.3497 58.3367 79.1617 59.3367 77.5747C60.1417 76.2987 60.1417 75.3507 59.3367 74.0747C58.3357 72.4867 55.6447 72.2997 30.3077 72.0597C9.42573 71.8607 2.07473 72.1007 1.16573 73.0097Z" fill="white"/>
</svg>
