<svg width="96" height="118" viewBox="0 0 96 118" fill="none" xmlns="http://www.w3.org/2000/svg">
<path fill-rule="evenodd" clip-rule="evenodd" d="M10.741 1.19059C5.836 2.97259 4.259 4.35659 1.927 8.92859C0.1 12.5106 0 15.3186 0 63.2456C0 112.873 0.0370007 113.823 2.051 115.837C3.487 117.273 4.755 117.681 6.279 117.197C7.477 116.817 17.354 110.943 28.228 104.143L48 91.7796L68.249 104.442C79.386 111.406 89.245 117.299 90.157 117.537C91.069 117.776 92.757 117.029 93.908 115.878C95.976 113.81 96 113.197 96 63.2456C96 14.9456 95.913 12.5346 94.031 8.84659C92.948 6.72359 90.361 3.92959 88.281 2.63659C84.52 0.298591 84.311 0.284591 49.5 0.0545915C21.955 -0.126409 13.699 0.115592 10.741 1.19059ZM83.429 12.3566C84.809 13.7376 85 19.2556 85 57.8566C85 82.0176 84.801 101.786 84.557 101.786C84.314 101.786 77.297 97.5006 68.965 92.2636C48.092 79.1436 48.646 79.3996 45.092 81.2376C43.493 82.0646 35.367 87.0266 27.035 92.2636C18.703 97.5006 11.686 101.786 11.443 101.786C11.199 101.786 11 82.0176 11 57.8566C11 19.2556 11.191 13.7376 12.571 12.3566C13.938 10.9906 18.554 10.7856 48 10.7856C77.446 10.7856 82.062 10.9906 83.429 12.3566Z" fill="white"/>
</svg>
