<svg width="115" height="117" viewBox="0 0 115 117" fill="none" xmlns="http://www.w3.org/2000/svg">
<path fill-rule="evenodd" clip-rule="evenodd" d="M1.19998 2.2C-0.36702 3.767 -0.33102 6.481 1.27498 7.814C1.97698 8.396 4.78898 9.013 7.52498 9.186L12.5 9.5L15.718 40.5C19.659 78.451 19.467 77.371 22.971 81.294L25.834 84.5L60.895 84.787C98.746 85.097 100.065 84.94 103.414 79.729C104.812 77.553 115 32.034 115 27.961C115 26.833 113.895 24.805 112.545 23.455L110.091 21H66.113C25.081 21 22.102 20.883 21.648 19.25C21.38 18.287 20.855 14.35 20.482 10.5C20.109 6.65 19.342 2.938 18.779 2.25C17.42 0.590996 2.84998 0.549996 1.19998 2.2ZM106.997 29.25C106.947 32.783 96.757 75.538 95.823 76.131C95.095 76.592 79.753 76.976 61.729 76.985L28.957 77L27.994 74.75C27.113 72.689 23 36.998 23 31.406V29H65C88.1 29 106.998 29.112 106.997 29.25ZM31.5 93.903C27.049 95.858 24.5 99.921 24.5 105.061C24.5 109.262 24.966 110.428 27.769 113.231C30.583 116.045 31.73 116.5 36 116.5C40.27 116.5 41.417 116.045 44.231 113.231C47.045 110.417 47.5 109.27 47.5 105C47.5 100.787 47.033 99.572 44.407 96.945C41.105 93.643 35.239 92.261 31.5 93.903ZM79.5 93.903C75.049 95.858 72.5 99.921 72.5 105.061C72.5 109.262 72.966 110.428 75.769 113.231C78.583 116.045 79.73 116.5 84 116.5C88.27 116.5 89.417 116.045 92.231 113.231C95.045 110.417 95.5 109.27 95.5 105C95.5 100.787 95.033 99.572 92.407 96.945C89.105 93.643 83.239 92.261 79.5 93.903ZM38.96 102.452C41.617 105.653 37.715 110.57 34.25 108.388C30.788 106.207 32.021 101 36 101C36.965 101 38.297 101.653 38.96 102.452ZM86.96 102.452C89.617 105.653 85.715 110.57 82.25 108.388C78.788 106.207 80.021 101 84 101C84.965 101 86.297 101.653 86.96 102.452Z" fill="white"/>
</svg>
